<svg width="1800" height="900" viewBox="0 0 1800 900" fill="none" xmlns="http://www.w3.org/2000/svg" role="img" aria-labelledby="title desc">
  <title id="title">代码审查信号网络</title>
  <desc id="desc">仓库路径、安全信号与审查证据连接成背景网络。</desc>
  <rect width="1800" height="900" fill="#F8FAFC"/>
  <g stroke="#CBD5E1" stroke-width="1.5" opacity="0.42">
    <path d="M120 190H420L560 310H870L1040 230H1390L1590 340"/>
    <path d="M260 660H520L700 520H930L1110 650H1510"/>
    <path d="M160 420H360L520 500H760L930 420H1190L1380 500H1660"/>
    <path d="M520 310L520 500M930 420L930 520M1190 420L1110 650M1390 230L1380 500"/>
  </g>
  <g>
    <circle cx="120" cy="190" r="8" fill="#2563EB"/>
    <circle cx="420" cy="190" r="8" fill="#22C55E"/>
    <circle cx="560" cy="310" r="8" fill="#F59E0B"/>
    <circle cx="870" cy="310" r="8" fill="#EF4444"/>
    <circle cx="1040" cy="230" r="8" fill="#14B8A6"/>
    <circle cx="1390" cy="230" r="8" fill="#6366F1"/>
    <circle cx="1590" cy="340" r="8" fill="#64748B"/>
    <circle cx="260" cy="660" r="8" fill="#64748B"/>
    <circle cx="520" cy="660" r="8" fill="#2563EB"/>
    <circle cx="700" cy="520" r="8" fill="#22C55E"/>
    <circle cx="930" cy="520" r="8" fill="#F59E0B"/>
    <circle cx="1110" cy="650" r="8" fill="#EF4444"/>
    <circle cx="1510" cy="650" r="8" fill="#6366F1"/>
    <circle cx="160" cy="420" r="8" fill="#14B8A6"/>
    <circle cx="360" cy="420" r="8" fill="#2563EB"/>
    <circle cx="520" cy="500" r="8" fill="#22C55E"/>
    <circle cx="760" cy="500" r="8" fill="#64748B"/>
    <circle cx="930" cy="420" r="8" fill="#EF4444"/>
    <circle cx="1190" cy="420" r="8" fill="#F59E0B"/>
    <circle cx="1380" cy="500" r="8" fill="#6366F1"/>
    <circle cx="1660" cy="500" r="8" fill="#14B8A6"/>
  </g>
  <g opacity="0.5">
    <rect x="106" y="104" width="180" height="38" rx="10" fill="white" stroke="#E2E8F0"/>
    <text x="126" y="128" fill="#64748B" font-family="Microsoft YaHei, Noto Sans SC, Arial, sans-serif" font-size="14" font-weight="600">鉴权边界</text>
    <rect x="1310" y="112" width="210" height="38" rx="10" fill="white" stroke="#E2E8F0"/>
    <text x="1330" y="136" fill="#64748B" font-family="Microsoft YaHei, Noto Sans SC, Arial, sans-serif" font-size="14" font-weight="600">支付证据</text>
    <rect x="330" y="734" width="198" height="38" rx="10" fill="white" stroke="#E2E8F0"/>
    <text x="350" y="758" fill="#64748B" font-family="Microsoft YaHei, Noto Sans SC, Arial, sans-serif" font-size="14" font-weight="600">重复逻辑</text>
    <rect x="1170" y="724" width="180" height="38" rx="10" fill="white" stroke="#E2E8F0"/>
    <text x="1190" y="748" fill="#64748B" font-family="Microsoft YaHei, Noto Sans SC, Arial, sans-serif" font-size="14" font-weight="600">风险评分</text>
  </g>
</svg>
