<svg width="1440" height="900" viewBox="0 0 1440 900" fill="none" xmlns="http://www.w3.org/2000/svg">
  <defs>
    <pattern id="grid" width="56" height="56" patternUnits="userSpaceOnUse">
      <path d="M56 0H0V56" stroke="#0f172a" stroke-opacity="0.05"/>
    </pattern>
  </defs>
  <rect width="1440" height="900" fill="url(#grid)"/>
  <g opacity="0.42">
    <rect x="118" y="140" width="168" height="72" rx="8" fill="#ecfeff" stroke="#0f766e" stroke-opacity="0.22"/>
    <rect x="1124" y="136" width="178" height="78" rx="8" fill="#fff7ed" stroke="#f59e0b" stroke-opacity="0.28"/>
    <rect x="982" y="648" width="208" height="84" rx="8" fill="#fef2f2" stroke="#dc2626" stroke-opacity="0.22"/>
    <rect x="216" y="642" width="198" height="86" rx="8" fill="#f8fafc" stroke="#64748b" stroke-opacity="0.22"/>
    <path d="M286 176C458 106 636 112 792 206C922 284 1022 226 1124 176" stroke="#0f766e" stroke-width="2" stroke-opacity="0.18"/>
    <path d="M414 685C566 584 758 582 982 690" stroke="#f59e0b" stroke-width="2" stroke-opacity="0.2"/>
    <path d="M214 212C390 380 620 438 858 334C994 274 1126 350 1256 456" stroke="#334155" stroke-width="2" stroke-opacity="0.12"/>
  </g>
  <g font-family="Microsoft YaHei, Noto Sans SC, Arial, sans-serif" font-size="13" font-weight="700">
    <text x="148" y="182" fill="#0f766e" opacity="0.38">规则</text>
    <text x="1156" y="181" fill="#b45309" opacity="0.44">上下文</text>
    <text x="1016" y="694" fill="#991b1b" opacity="0.36">风险</text>
    <text x="254" y="690" fill="#475569" opacity="0.4">报告</text>
  </g>
</svg>
