<svg width="1440" height="900" viewBox="100 92 1240 775" fill="none" xmlns="http://www.w3.org/2000/svg">
  <defs>
    <linearGradient id="heroSurface" x1="0" y1="0" x2="1440" y2="900" gradientUnits="userSpaceOnUse">
      <stop stop-color="#fbfaf7"/>
      <stop offset="0.52" stop-color="#eef7f4"/>
      <stop offset="1" stop-color="#f7f0e2"/>
    </linearGradient>
    <linearGradient id="riskGradient" x1="806" y1="216" x2="1214" y2="542" gradientUnits="userSpaceOnUse">
      <stop stop-color="#0f766e"/>
      <stop offset="0.5" stop-color="#f59e0b"/>
      <stop offset="1" stop-color="#dc2626"/>
    </linearGradient>
    <filter id="softShadow" x="80" y="70" width="1280" height="760" filterUnits="userSpaceOnUse" color-interpolation-filters="sRGB">
      <feDropShadow dx="0" dy="24" stdDeviation="32" flood-color="#0f172a" flood-opacity="0.16"/>
    </filter>
  </defs>

  <rect width="1440" height="900" rx="34" fill="url(#heroSurface)"/>
  <path d="M94 142H1346" stroke="#0f172a" stroke-opacity="0.07"/>
  <path d="M94 762H1346" stroke="#0f172a" stroke-opacity="0.07"/>

  <g filter="url(#softShadow)">
    <rect x="118" y="108" width="1204" height="674" rx="20" fill="#ffffff"/>
    <rect x="118" y="108" width="1204" height="674" rx="20" stroke="#111827" stroke-opacity="0.08"/>
  </g>

  <rect x="118" y="108" width="1204" height="58" rx="20" fill="#111827"/>
  <circle cx="154" cy="137" r="7" fill="#ef4444"/>
  <circle cx="178" cy="137" r="7" fill="#f59e0b"/>
  <circle cx="202" cy="137" r="7" fill="#10b981"/>
  <rect x="243" y="126" width="260" height="22" rx="6" fill="#ffffff" fill-opacity="0.1"/>
  <text x="260" y="142" fill="#e5e7eb" font-family="Microsoft YaHei, Noto Sans SC, Arial, sans-serif" font-size="15">仓库审查 / 安全快照</text>

  <rect x="118" y="166" width="196" height="616" fill="#f8fafc"/>
  <text x="150" y="218" fill="#0f172a" font-family="Microsoft YaHei, Noto Sans SC, Arial, sans-serif" font-size="20" font-weight="700">智能代码审查</text>
  <rect x="150" y="248" width="128" height="32" rx="8" fill="#0f766e"/>
  <text x="180" y="269" fill="#ffffff" font-family="Microsoft YaHei, Noto Sans SC, Arial, sans-serif" font-size="15" font-weight="700">审查工作台</text>
  <rect x="150" y="302" width="116" height="14" rx="7" fill="#cbd5e1"/>
  <rect x="150" y="334" width="138" height="14" rx="7" fill="#cbd5e1"/>
  <rect x="150" y="366" width="104" height="14" rx="7" fill="#cbd5e1"/>
  <rect x="150" y="424" width="96" height="14" rx="7" fill="#e2e8f0"/>
  <rect x="150" y="456" width="122" height="14" rx="7" fill="#e2e8f0"/>
  <rect x="150" y="488" width="88" height="14" rx="7" fill="#e2e8f0"/>
  <rect x="150" y="680" width="122" height="48" rx="8" fill="#ecfeff"/>
  <text x="166" y="701" fill="#0f766e" font-family="Microsoft YaHei, Noto Sans SC, Arial, sans-serif" font-size="13" font-weight="700">可用积分</text>
  <text x="166" y="718" fill="#0f172a" font-family="Microsoft YaHei, Noto Sans SC, Arial, sans-serif" font-size="16" font-weight="800">2,000</text>

  <text x="354" y="222" fill="#0f172a" font-family="Microsoft YaHei, Noto Sans SC, Arial, sans-serif" font-size="34" font-weight="800">仓库审查指挥台</text>
  <text x="354" y="252" fill="#64748b" font-family="Microsoft YaHei, Noto Sans SC, Arial, sans-serif" font-size="17">受控上传、规则证据、跨文件推理、人工确认。</text>

  <rect x="354" y="286" width="404" height="210" rx="12" fill="#0f172a"/>
  <text x="382" y="326" fill="#94a3b8" font-family="Microsoft YaHei, Noto Sans SC, Arial, sans-serif" font-size="15">支付流程 / 回调校验</text>
  <text x="382" y="362" fill="#e5e7eb" font-family="Microsoft YaHei, Noto Sans SC, Arial, sans-serif" font-size="17">未登录用户直接拒绝</text>
  <text x="382" y="394" fill="#fbbf24" font-family="Microsoft YaHei, Noto Sans SC, Arial, sans-serif" font-size="17">服务端校验价格</text>
  <text x="382" y="426" fill="#5eead4" font-family="Microsoft YaHei, Noto Sans SC, Arial, sans-serif" font-size="17">成功后扣减积分</text>
  <rect x="382" y="454" width="314" height="12" rx="6" fill="#334155"/>

  <rect x="790" y="286" width="402" height="210" rx="12" fill="#ffffff" stroke="#0f172a" stroke-opacity="0.09"/>
  <text x="824" y="326" fill="#0f172a" font-family="Microsoft YaHei, Noto Sans SC, Arial, sans-serif" font-size="19" font-weight="800">风险分布</text>
  <rect x="824" y="356" width="320" height="18" rx="9" fill="#e2e8f0"/>
  <rect x="824" y="356" width="86" height="18" rx="9" fill="#0f766e"/>
  <rect x="910" y="356" width="132" height="18" fill="#f59e0b"/>
  <rect x="1042" y="356" width="102" height="18" rx="9" fill="#dc2626"/>
  <g fill="#ffffff" stroke="#cbd5e1">
    <rect x="824" y="404" width="92" height="58" rx="8"/>
    <rect x="938" y="404" width="92" height="58" rx="8"/>
    <rect x="1052" y="404" width="92" height="58" rx="8"/>
  </g>
  <text x="848" y="431" fill="#0f766e" font-family="Microsoft YaHei, Noto Sans SC, Arial, sans-serif" font-size="24" font-weight="800">12</text>
  <text x="842" y="450" fill="#64748b" font-family="Microsoft YaHei, Noto Sans SC, Arial, sans-serif" font-size="14">待处理</text>
  <text x="962" y="431" fill="#f59e0b" font-family="Microsoft YaHei, Noto Sans SC, Arial, sans-serif" font-size="24" font-weight="800">6</text>
  <text x="954" y="450" fill="#64748b" font-family="Microsoft YaHei, Noto Sans SC, Arial, sans-serif" font-size="14">需确认</text>
  <text x="1076" y="431" fill="#dc2626" font-family="Microsoft YaHei, Noto Sans SC, Arial, sans-serif" font-size="24" font-weight="800">2</text>
  <text x="1072" y="450" fill="#64748b" font-family="Microsoft YaHei, Noto Sans SC, Arial, sans-serif" font-size="14">严重</text>

  <rect x="354" y="530" width="838" height="168" rx="12" fill="#ffffff" stroke="#0f172a" stroke-opacity="0.09"/>
  <text x="384" y="568" fill="#0f172a" font-family="Microsoft YaHei, Noto Sans SC, Arial, sans-serif" font-size="19" font-weight="800">待确认问题</text>
  <g font-family="Microsoft YaHei, Noto Sans SC, Arial, sans-serif" font-size="15">
    <rect x="384" y="596" width="778" height="34" rx="8" fill="#fef2f2"/>
    <text x="404" y="618" fill="#991b1b" font-weight="700">严重</text>
    <text x="500" y="618" fill="#334155">支付回调金额需服务端校验</text>
    <rect x="1040" y="605" width="92" height="16" rx="8" fill="#fecaca"/>
    <text x="1058" y="618" fill="#991b1b" font-size="12" font-weight="700">需负责人</text>

    <rect x="384" y="638" width="778" height="34" rx="8" fill="#fff7ed"/>
    <text x="404" y="660" fill="#9a3412" font-weight="700">高危</text>
    <text x="500" y="660" fill="#334155">上传路径必须按用户隔离</text>
    <rect x="1040" y="647" width="92" height="16" rx="8" fill="#fed7aa"/>
    <text x="1062" y="660" fill="#9a3412" font-size="12" font-weight="700">待修复</text>
  </g>

  <g transform="translate(1218 288)">
    <rect width="62" height="210" rx="12" fill="#f8fafc" stroke="#0f172a" stroke-opacity="0.08"/>
    <rect x="18" y="22" width="26" height="26" rx="6" fill="#ccfbf1"/>
    <rect x="18" y="68" width="26" height="26" rx="6" fill="#fef3c7"/>
    <rect x="18" y="114" width="26" height="26" rx="6" fill="#fee2e2"/>
    <rect x="18" y="160" width="26" height="26" rx="6" fill="#e0e7ff"/>
  </g>
</svg>
