<svg width="900" height="650" viewBox="54 54 792 572" fill="none" xmlns="http://www.w3.org/2000/svg">
  <rect width="900" height="650" rx="18" fill="#fafaf9"/>
  <rect x="70" y="62" width="760" height="526" rx="14" fill="#ffffff" stroke="#0f172a" stroke-opacity="0.08"/>
  <text x="108" y="122" fill="#0f172a" font-family="Microsoft YaHei, Noto Sans SC, Arial, sans-serif" font-size="29" font-weight="800">跨文件上下文图</text>
  <text x="108" y="154" fill="#64748b" font-family="Microsoft YaHei, Noto Sans SC, Arial, sans-serif" font-size="17">关键模块一起审查，风险不再被孤立切片。</text>
  <g stroke="#94a3b8" stroke-width="2" stroke-opacity="0.55">
    <path d="M452 304L274 220"/>
    <path d="M452 304L640 218"/>
    <path d="M452 304L248 420"/>
    <path d="M452 304L672 420"/>
    <path d="M452 304L452 490"/>
  </g>
  <rect x="354" y="244" width="196" height="120" rx="12" fill="#0f766e"/>
  <text x="396" y="296" fill="#ffffff" font-family="Microsoft YaHei, Noto Sans SC, Arial, sans-serif" font-size="20" font-weight="800">智能审查</text>
  <text x="398" y="326" fill="#ccfbf1" font-family="Microsoft YaHei, Noto Sans SC, Arial, sans-serif" font-size="15">仓库上下文</text>
  <g font-family="Microsoft YaHei, Noto Sans SC, Arial, sans-serif" font-size="16" font-weight="800">
    <rect x="150" y="174" width="176" height="76" rx="8" fill="#ecfeff" stroke="#0f766e" stroke-opacity="0.2"/>
    <text x="194" y="218" fill="#0f766e">接口路由</text>
    <rect x="578" y="174" width="176" height="76" rx="8" fill="#fff7ed" stroke="#f59e0b" stroke-opacity="0.24"/>
    <text x="622" y="218" fill="#92400e">鉴权模型</text>
    <rect x="142" y="390" width="196" height="76" rx="8" fill="#f8fafc" stroke="#64748b" stroke-opacity="0.24"/>
    <text x="190" y="434" fill="#334155">数据库</text>
    <rect x="570" y="390" width="204" height="76" rx="8" fill="#fef2f2" stroke="#dc2626" stroke-opacity="0.2"/>
    <text x="622" y="434" fill="#991b1b">支付流程</text>
    <rect x="348" y="492" width="208" height="76" rx="8" fill="#eef2ff" stroke="#4f46e5" stroke-opacity="0.2"/>
    <text x="398" y="536" fill="#4338ca">存储边界</text>
  </g>
</svg>
