<svg width="900" height="680" viewBox="52 52 796 602" fill="none" xmlns="http://www.w3.org/2000/svg" role="img" aria-labelledby="title desc">
  <title id="title">代码审查流水线示意图</title>
  <desc id="desc">规则扫描、智能推理、人工确认和报告导出串成一条审查流水线。</desc>
  <rect width="900" height="680" rx="28" fill="#F8FAFC"/>
  <rect x="56" y="56" width="788" height="568" rx="24" fill="white" stroke="#E2E8F0"/>
  <text x="96" y="112" fill="#0F172A" font-family="Microsoft YaHei, Noto Sans SC, Arial, sans-serif" font-size="31" font-weight="800">审查流水线</text>
  <text x="96" y="145" fill="#64748B" font-family="Microsoft YaHei, Noto Sans SC, Arial, sans-serif" font-size="17" font-weight="500">可解释信号沉淀为团队决策。</text>
  <g stroke="#CBD5E1" stroke-width="3">
    <path d="M180 252H720"/>
    <path d="M360 252V408"/>
    <path d="M540 252V408"/>
  </g>
  <g>
    <rect x="96" y="196" width="168" height="112" rx="18" fill="#EFF6FF" stroke="#BFDBFE"/>
    <circle cx="130" cy="232" r="17" fill="#2563EB"/>
    <path d="M120 232H140M130 222V242" stroke="white" stroke-width="4" stroke-linecap="round"/>
    <text x="96" y="340" fill="#0F172A" font-family="Microsoft YaHei, Noto Sans SC, Arial, sans-serif" font-size="20" font-weight="700">仓库快照</text>
    <text x="96" y="368" fill="#64748B" font-family="Microsoft YaHei, Noto Sans SC, Arial, sans-serif" font-size="15" font-weight="500">受控上传</text>

    <rect x="276" y="196" width="168" height="112" rx="18" fill="#F0FDF4" stroke="#BBF7D0"/>
    <circle cx="310" cy="232" r="17" fill="#22C55E"/>
    <path d="M300 232L307 239L321 223" stroke="white" stroke-width="4" stroke-linecap="round" stroke-linejoin="round"/>
    <text x="276" y="340" fill="#0F172A" font-family="Microsoft YaHei, Noto Sans SC, Arial, sans-serif" font-size="20" font-weight="700">规则扫描</text>
    <text x="276" y="368" fill="#64748B" font-family="Microsoft YaHei, Noto Sans SC, Arial, sans-serif" font-size="15" font-weight="500">已知模式</text>

    <rect x="456" y="196" width="168" height="112" rx="18" fill="#FFF7ED" stroke="#FED7AA"/>
    <circle cx="490" cy="232" r="17" fill="#F59E0B"/>
    <path d="M482 232H498M490 224V240" stroke="white" stroke-width="4" stroke-linecap="round"/>
    <text x="456" y="340" fill="#0F172A" font-family="Microsoft YaHei, Noto Sans SC, Arial, sans-serif" font-size="20" font-weight="700">智能审查</text>
    <text x="456" y="368" fill="#64748B" font-family="Microsoft YaHei, Noto Sans SC, Arial, sans-serif" font-size="15" font-weight="500">跨文件上下文</text>

    <rect x="636" y="196" width="168" height="112" rx="18" fill="#FEF2F2" stroke="#FECACA"/>
    <circle cx="670" cy="232" r="17" fill="#EF4444"/>
    <path d="M662 232H678" stroke="white" stroke-width="4" stroke-linecap="round"/>
    <text x="636" y="340" fill="#0F172A" font-family="Microsoft YaHei, Noto Sans SC, Arial, sans-serif" font-size="20" font-weight="700">风险评分</text>
    <text x="636" y="368" fill="#64748B" font-family="Microsoft YaHei, Noto Sans SC, Arial, sans-serif" font-size="15" font-weight="500">优先级报告</text>
  </g>
  <g>
    <rect x="216" y="408" width="468" height="136" rx="20" fill="#0F172A"/>
    <text x="248" y="452" fill="#E2E8F0" font-family="Microsoft YaHei, Noto Sans SC, Arial, sans-serif" font-size="20" font-weight="700">人工确认层</text>
    <rect x="248" y="480" width="104" height="32" rx="10" fill="#1E293B"/>
    <text x="266" y="502" fill="#93C5FD" font-family="Microsoft YaHei, Noto Sans SC, Arial, sans-serif" font-size="15" font-weight="700">待处理</text>
    <rect x="368" y="480" width="134" height="32" rx="10" fill="#1E293B"/>
    <text x="386" y="502" fill="#FCD34D" font-family="Microsoft YaHei, Noto Sans SC, Arial, sans-serif" font-size="15" font-weight="700">需确认</text>
    <rect x="518" y="480" width="110" height="32" rx="10" fill="#1E293B"/>
    <text x="536" y="502" fill="#86EFAC" font-family="Microsoft YaHei, Noto Sans SC, Arial, sans-serif" font-size="15" font-weight="700">已修复</text>
  </g>
</svg>
