<svg width="760" height="590" viewBox="52 50 656 509" fill="none" xmlns="http://www.w3.org/2000/svg" role="img" aria-labelledby="title desc">
  <title id="title">安全代码索引</title>
  <desc id="desc">展示快照限制、忽略文件和不执行代码边界的安全索引图。</desc>
  <rect width="760" height="590" rx="28" fill="#F8FAFC"/>
  <rect x="58" y="58" width="644" height="474" rx="24" fill="white" stroke="#E2E8F0"/>
  <text x="96" y="116" fill="#0F172A" font-family="Microsoft YaHei, Noto Sans SC, Arial, sans-serif" font-size="28" font-weight="800">安全索引</text>
  <rect x="106" y="166" width="250" height="284" rx="20" fill="#0F172A"/>
  <text x="134" y="214" fill="#93C5FD" font-family="Microsoft YaHei, Noto Sans SC, Arial, sans-serif" font-size="18">项目快照</text>
  <text x="134" y="252" fill="#CBD5E1" font-family="Microsoft YaHei, Noto Sans SC, Arial, sans-serif" font-size="16">支付接口文件</text>
  <text x="134" y="286" fill="#CBD5E1" font-family="Microsoft YaHei, Noto Sans SC, Arial, sans-serif" font-size="16">鉴权会话文件</text>
  <text x="134" y="320" fill="#FCA5A5" font-family="Microsoft YaHei, Noto Sans SC, Arial, sans-serif" font-size="16">依赖目录</text>
  <text x="134" y="354" fill="#FCA5A5" font-family="Microsoft YaHei, Noto Sans SC, Arial, sans-serif" font-size="16">构建产物</text>
  <text x="134" y="388" fill="#86EFAC" font-family="Microsoft YaHei, Noto Sans SC, Arial, sans-serif" font-size="16">审查报告</text>
  <path d="M394 308H538" stroke="#CBD5E1" stroke-width="4" stroke-linecap="round"/>
  <path d="M526 292L546 308L526 324" stroke="#CBD5E1" stroke-width="4" stroke-linecap="round" stroke-linejoin="round"/>
  <rect x="548" y="202" width="106" height="212" rx="20" fill="#ECFDF5" stroke="#A7F3D0"/>
  <path d="M601 236L636 252V292C636 342 612 374 601 382C590 374 566 342 566 292V252L601 236Z" fill="#22C55E"/>
  <path d="M584 300L596 312L619 282" stroke="white" stroke-width="6" stroke-linecap="round" stroke-linejoin="round"/>
  <text x="560" y="448" fill="#166534" font-family="Microsoft YaHei, Noto Sans SC, Arial, sans-serif" font-size="18" font-weight="800">不执行代码</text>
</svg>
