<svg width="900" height="650" viewBox="54 54 792 572" fill="none" xmlns="http://www.w3.org/2000/svg">
  <rect width="900" height="650" rx="18" fill="#f8fafc"/>
  <rect x="72" y="64" width="756" height="522" rx="14" fill="#ffffff" stroke="#0f172a" stroke-opacity="0.08"/>
  <text x="112" y="126" fill="#0f172a" font-family="Microsoft YaHei, Noto Sans SC, Arial, sans-serif" font-size="29" font-weight="800">人工确认与实时导出</text>
  <text x="112" y="158" fill="#64748b" font-family="Microsoft YaHei, Noto Sans SC, Arial, sans-serif" font-size="17">每次确认都会立即更新风险评分和导出报告。</text>
  <rect x="112" y="218" width="420" height="272" rx="10" fill="#f8fafc" stroke="#cbd5e1"/>
  <g font-family="Microsoft YaHei, Noto Sans SC, Arial, sans-serif">
    <rect x="140" y="252" width="344" height="42" rx="8" fill="#ffffff"/>
    <text x="160" y="280" fill="#991b1b" font-size="16" font-weight="800">待处理</text>
    <text x="232" y="280" fill="#334155" font-size="15">支付回调缺少归属校验</text>
    <rect x="140" y="310" width="344" height="42" rx="8" fill="#ffffff"/>
    <text x="160" y="338" fill="#92400e" font-size="16" font-weight="800">需确认</text>
    <text x="232" y="338" fill="#334155" font-size="15">存储暴露风险待复核</text>
    <rect x="140" y="368" width="344" height="42" rx="8" fill="#ffffff"/>
    <text x="160" y="396" fill="#0f766e" font-size="16" font-weight="800">已修复</text>
    <text x="232" y="396" fill="#334155" font-size="15">积分事务边界已补齐</text>
    <rect x="140" y="426" width="344" height="42" rx="8" fill="#ffffff"/>
    <text x="160" y="454" fill="#64748b" font-size="16" font-weight="800">已忽略</text>
    <text x="232" y="454" fill="#334155" font-size="15">测试输出无需处理</text>
  </g>
  <rect x="576" y="218" width="196" height="272" rx="10" fill="#0f172a"/>
  <text x="606" y="260" fill="#f8fafc" font-family="Microsoft YaHei, Noto Sans SC, Arial, sans-serif" font-size="20" font-weight="800">报告</text>
  <text x="606" y="296" fill="#94a3b8" font-family="Microsoft YaHei, Noto Sans SC, Arial, sans-serif" font-size="15">风险评分：72</text>
  <text x="606" y="328" fill="#94a3b8" font-family="Microsoft YaHei, Noto Sans SC, Arial, sans-serif" font-size="15">格式：两种</text>
  <rect x="606" y="362" width="128" height="14" rx="7" fill="#334155"/>
  <rect x="606" y="392" width="108" height="14" rx="7" fill="#334155"/>
  <rect x="606" y="422" width="142" height="14" rx="7" fill="#334155"/>
</svg>
